<svg width="186" height="37" viewBox="0 0 186 37" fill="none" xmlns="http://www.w3.org/2000/svg">
<path d="M19 0L23.1535 12.7832H36.5945L25.7205 20.6836L29.874 33.4668L19 25.5664L8.12597 33.4668L12.2795 20.6836L1.40545 12.7832H14.8465L19 0Z" fill="#2F75F4"/>
<path d="M56 0L60.1535 12.7832H73.5945L62.7205 20.6836L66.874 33.4668L56 25.5664L45.126 33.4668L49.2795 20.6836L38.4055 12.7832H51.8465L56 0Z" fill="#2F75F4"/>
<path d="M93 0L97.1535 12.7832H110.595L99.7205 20.6836L103.874 33.4668L93 25.5664L82.126 33.4668L86.2795 20.6836L75.4055 12.7832H88.8465L93 0Z" fill="#2F75F4"/>
<path d="M130 0L134.154 12.7832H147.595L136.721 20.6836L140.874 33.4668L130 25.5664L119.126 33.4668L123.279 20.6836L112.405 12.7832H125.846L130 0Z" fill="#2F75F4"/>
<path d="M167 0L171.154 12.7832H184.595L173.721 20.6836L177.874 33.4668L167 25.5664L156.126 33.4668L160.279 20.6836L149.405 12.7832H162.846L167 0Z" fill="#2F75F4"/>
</svg>
